<svg xmlns="http://www.w3.org/2000/svg" viewBox="0 0 350 140" preserveAspectRatio="none">
  <rect width="350" height="140" fill="#dde4ec"/>
  <g stroke="#c4cedb" stroke-width="2.5">
    <path d="M0,42 H350"/><path d="M0,96 H350"/>
    <path d="M64,0 V140"/><path d="M150,0 V140"/><path d="M236,0 V140"/><path d="M300,0 V140"/>
  </g>
  <rect x="200" y="16" width="86" height="48" rx="6" fill="#c4e3c5"/>
  <path d="M252,140 C292,116 322,124 350,116 L350,140 Z" fill="#aecbe8"/>
  <path d="M70,100 C44,60 100,32 156,46 C214,60 252,38 298,60 C334,78 308,118 256,110 C200,103 124,128 90,116 C76,111 68,104 70,100 Z" fill="none" stroke="#ffffff" stroke-width="9" stroke-linecap="round" stroke-linejoin="round"/>
  <path d="M70,100 C44,60 100,32 156,46 C214,60 252,38 298,60 C334,78 308,118 256,110 C200,103 124,128 90,116 C76,111 68,104 70,100 Z" fill="none" stroke="#E85D26" stroke-width="5" stroke-linecap="round" stroke-linejoin="round"/>
  <circle cx="70" cy="100" r="8" fill="#2CA82F" stroke="#ffffff" stroke-width="3.5"/>
</svg>
