<svg xmlns="http://www.w3.org/2000/svg" viewBox="0 0 350 140" preserveAspectRatio="none">
  <rect width="350" height="140" fill="#dde4ec"/>
  <g stroke="#c4cedb" stroke-width="2.5">
    <path d="M0,42 H350"/><path d="M0,96 H350"/>
    <path d="M64,0 V140"/><path d="M150,0 V140"/><path d="M236,0 V140"/><path d="M300,0 V140"/>
  </g>
  <rect x="18" y="16" width="92" height="50" rx="6" fill="#c4e3c5"/>
  <path d="M236,140 C272,116 312,122 350,114 L350,140 Z" fill="#aecbe8"/>
  <path d="M42,40 C80,30 88,78 120,80 C156,82 168,48 198,64 C230,80 242,114 274,108 C300,103 312,120 326,112" fill="none" stroke="#ffffff" stroke-width="9" stroke-linecap="round" stroke-linejoin="round"/>
  <path d="M42,40 C80,30 88,78 120,80 C156,82 168,48 198,64 C230,80 242,114 274,108 C300,103 312,120 326,112" fill="none" stroke="#E85D26" stroke-width="5" stroke-linecap="round" stroke-linejoin="round"/>
  <circle cx="42" cy="40" r="8" fill="#2CA82F" stroke="#ffffff" stroke-width="3.5"/>
  <circle cx="326" cy="112" r="8" fill="#E85D26" stroke="#ffffff" stroke-width="3.5"/>
</svg>
